<svg version="1.0" xmlns="http://www.w3.org/2000/svg" width="300.000000pt" height="300.000000pt" viewBox="0 0 300.000000 300.000000" preserveAspectRatio="xMidYMid meet"><g transform="translate(0.000000,300.000000) scale(0.100000,-0.100000)" fill="#000000" stroke="none"><path d="M1778 2558 c-9 -7 -25 -39 -37 -70 l-21 -58 230 0 230 0 0 53 c0 85 -4 87 -211 87 -125 0 -180 -4 -191 -12z"/><path d="M820 2533 c-34 -12 -40 -36 -40 -165 l0 -128 75 0 75 0 0 75 0 75 222 -2 223 -3 50 -92 50 -93 298 0 297 0 0 -70 0 -70 75 0 75 0 0 119 c0 105 -2 121 -21 145 l-20 26 -307 0 -307 0 -44 84 c-27 53 -52 88 -68 95 -24 11 -602 15 -633 4z"/><path d="M752 2104 c-21 -14 -22 -22 -22 -150 l0 -134 75 0 75 0 0 75 0 75 222 -2 223 -3 49 -92 50 -93 348 0 348 0 0 -70 0 -70 75 0 75 0 0 123 c0 182 36 167 -401 167 l-354 0 -40 76 c-64 122 -38 114 -394 114 -261 0 -310 -2 -329 -16z"/><path d="M641 1674 c-21 -26 -21 -35 -21 -601 0 -606 1 -620 45 -637 9 -3 388 -6 841 -6 807 0 824 0 844 20 11 11 22 30 25 42 3 13 4 238 3 501 l-3 479 -24 19 c-22 18 -45 19 -481 19 l-458 0 -42 78 c-64 121 -33 112 -395 112 l-314 0 -20 -26z m628 -219 l52 -95 454 0 455 0 -2 -387 -3 -388 -725 0 -725 0 -3 470 c-1 259 0 476 3 483 3 9 57 12 224 12 l219 0 51 -95z"/></g></svg>
