<svg version="1.0" xmlns="http://www.w3.org/2000/svg" width="512.000000pt" height="512.000000pt" viewBox="0 0 512.000000 512.000000" preserveAspectRatio="xMidYMid meet"><g transform="translate(0.000000,512.000000) scale(0.100000,-0.100000)" fill="#000000" stroke="none"><path d="M0 2560 l0 -2560 2560 0 2560 0 0 2560 0 2560 -2560 0 -2560 0 0 -2560z m3060 1195 c0 -55 0 -55 50 -87 27 -18 50 -36 50 -39 0 -3 -25 -13 -55 -23 -51 -16 -55 -19 -65 -59 -20 -76 -18 -75 -63 -24 l-42 48 -52 -7 c-29 -3 -53 -3 -53 1 0 5 13 29 30 55 l30 46 -21 53 c-11 30 -19 55 -17 56 2 2 28 -5 59 -15 l57 -17 38 33 c22 18 42 33 47 34 4 0 7 -25 7 -55z m-380 -64 c0 -34 5 -43 30 -58 37 -22 38 -29 3 -38 -38 -9 -51 -21 -58 -56 -8 -37 -16 -36 -44 2 -21 28 -26 30 -63 24 -37 -7 -39 -6 -30 11 6 11 17 28 25 38 13 17 13 24 0 54 -8 19 -13 36 -11 38 2 2 21 -2 41 -8 34 -10 40 -9 60 10 33 33 47 28 47 -17z m-236 -190 l28 -19 -35 -11 c-27 -9 -37 -19 -42 -42 -8 -36 -12 -36 -38 -3 -15 20 -27 25 -48 22 -33 -5 -35 -1 -13 30 13 18 14 29 5 54 -14 39 -11 41 25 28 23 -9 32 -8 53 8 l26 19 5 -34 c3 -23 14 -40 34 -52z m354 -163 c-18 -34 -60 -90 -93 -122 l-59 -60 69 38 c88 48 150 98 188 153 17 23 33 41 35 39 11 -12 -61 -119 -120 -179 -67 -67 -67 -67 -25 -46 103 53 231 162 266 228 7 12 15 20 18 18 13 -14 -60 -120 -133 -194 -44 -46 -78 -83 -75 -83 3 0 53 23 111 51 83 41 119 66 177 123 40 39 73 69 73 65 0 -4 -18 -33 -39 -65 -44 -65 -136 -159 -194 -198 -38 -25 -38 -25 -14 -31 30 -8 182 48 263 96 31 19 79 55 105 81 27 26 49 43 49 39 0 -4 -21 -34 -48 -66 -56 -70 -143 -143 -218 -182 -29 -15 -48 -30 -42 -34 12 -8 133 14 203 37 71 24 122 50 185 97 l55 41 -33 -38 c-73 -83 -154 -143 -251 -182 l-56 -24 53 0 c123 0 291 54 365 119 68 60 38 15 -38 -57 -45 -43 -102 -85 -142 -106 l-68 -34 58 -7 c80 -10 154 1 228 36 l64 29 -45 -39 c-97 -85 -198 -132 -284 -133 l-51 0 46 -23 c70 -36 83 -58 20 -34 -50 19 -131 26 -144 12 -4 -3 12 -15 35 -25 38 -17 114 -85 105 -94 -2 -3 -24 7 -48 20 -56 32 -147 52 -161 38 -8 -8 -1 -19 21 -38 28 -23 61 -72 61 -90 0 -3 -16 8 -35 24 -37 34 -89 48 -131 38 l-27 -7 31 -32 c31 -32 52 -74 52 -104 0 -11 -13 -1 -35 24 -38 44 -91 69 -126 58 -20 -7 -20 -8 9 -38 29 -30 59 -87 46 -87 -3 0 -24 15 -46 34 -22 19 -53 39 -69 45 -29 10 -29 10 -14 -12 16 -23 21 -102 6 -111 -5 -3 -14 7 -21 23 -6 16 -24 41 -40 56 -26 25 -34 27 -76 21 -26 -3 -49 -8 -51 -10 -2 -1 6 -23 17 -47 11 -24 20 -57 20 -74 0 -30 -1 -29 -19 10 -22 49 -74 95 -106 95 -22 0 -22 -1 -9 -37 7 -21 13 -49 13 -63 1 -21 -3 -18 -25 20 -28 51 -49 70 -76 70 -15 0 -18 -8 -18 -42 l0 -43 -19 30 c-10 17 -30 39 -45 48 l-26 17 0 -36 0 -37 -23 34 -23 34 -119 11 c-141 13 -134 12 -391 75 -239 58 -435 99 -477 99 -41 0 -30 8 45 35 74 26 196 86 253 125 182 124 510 305 644 355 130 49 272 160 318 248 8 16 17 26 20 24 12 -12 -56 -116 -115 -176 -66 -67 -61 -70 26 -18 75 45 158 121 188 173 39 67 41 45 2 -28z m-598 12 c0 -11 7 -23 15 -26 20 -8 19 -24 0 -24 -9 0 -20 -12 -26 -27 -9 -25 -12 -26 -20 -10 -6 9 -21 17 -34 17 -26 0 -33 14 -14 26 6 3 8 17 5 30 -6 22 -4 24 18 18 13 -3 27 -1 30 5 11 18 26 12 26 -9z m1911 -1324 c60 -40 84 -95 84 -191 0 -69 -4 -87 -27 -126 -15 -25 -38 -53 -52 -62 -41 -27 -110 -38 -162 -27 -103 23 -149 89 -149 215 0 85 19 139 63 178 58 53 174 58 243 13z m-3295 -146 c23 -91 43 -167 44 -170 1 -3 20 72 43 165 l43 170 31 3 31 3 43 -176 44 -176 44 175 43 176 30 0 c23 0 28 -4 24 -17 -3 -10 -23 -90 -46 -178 -23 -88 -46 -177 -51 -197 -9 -34 -13 -38 -42 -38 l-33 0 -38 158 c-21 86 -42 163 -46 171 -4 8 -23 -51 -44 -140 -21 -85 -40 -162 -43 -172 -3 -14 -13 -17 -36 -15 l-32 3 -52 195 c-29 107 -53 203 -53 213 0 14 6 18 27 15 26 -3 28 -9 69 -168z m874 145 l0 -25 -110 0 -110 0 0 -60 0 -60 110 0 110 0 0 -25 0 -25 -110 0 -110 0 0 -77 0 -78 110 3 110 3 0 -30 0 -31 -140 0 -140 0 0 215 0 215 140 0 140 0 0 -25z m427 -1 c22 -17 29 -30 31 -65 2 -37 -1 -49 -23 -69 l-25 -24 29 -12 c66 -28 79 -128 25 -185 -36 -38 -79 -49 -191 -49 l-93 0 0 216 0 216 109 -4 c92 -2 114 -6 138 -24z m418 -145 l90 -170 3 170 2 171 25 0 25 0 0 -216 0 -215 -36 3 c-35 3 -36 4 -132 185 l-97 183 -3 -186 -2 -185 -28 3 -27 3 -2 204 c-1 112 0 208 3 212 3 5 24 9 47 9 l42 0 90 -171z m625 146 l0 -25 -110 0 -110 0 0 -60 0 -60 110 0 110 0 0 -25 0 -25 -110 0 -110 0 0 -75 0 -75 110 0 110 0 0 -30 0 -30 -140 0 -140 0 0 215 0 215 140 0 140 0 0 -25z m240 -85 l0 -110 102 110 c91 99 105 110 136 110 l34 0 -92 -100 c-60 -65 -89 -104 -84 -112 4 -7 39 -49 78 -93 38 -44 79 -90 90 -102 l19 -23 -39 1 c-34 1 -44 7 -84 53 -25 28 -63 72 -84 96 l-39 43 -19 -22 c-14 -18 -18 -40 -18 -97 l0 -74 -30 0 -30 0 0 215 0 215 30 0 30 0 0 -110z m-542 -430 c4 -12 3 -13 -10 -3 -13 11 -15 8 -16 -17 0 -17 -9 -45 -19 -63 -22 -36 -80 -80 -96 -70 -5 3 6 14 26 25 33 17 67 61 67 88 0 6 -25 10 -62 10 -45 0 -59 3 -51 11 6 6 35 9 67 7 48 -2 55 -1 51 13 -4 12 1 16 16 15 12 0 25 -8 27 -16z m791 -1 c3 -12 1 -12 -14 1 -17 14 -18 13 -12 -2 3 -10 3 -18 -1 -18 -5 0 -14 -15 -20 -34 -18 -48 -112 -131 -112 -98 0 4 14 15 30 24 26 15 70 71 70 91 0 18 -58 5 -80 -18 -38 -40 -42 -29 -7 21 21 31 33 41 35 30 2 -11 15 -16 39 -16 26 0 34 4 30 14 -6 15 9 26 27 22 6 -1 12 -9 15 -17z m-1322 2 c9 8 13 8 13 0 0 -15 30 -14 31 2 0 10 2 10 6 0 2 -7 11 -13 18 -13 7 0 16 6 19 13 5 10 7 10 12 0 3 -7 12 -13 20 -13 8 0 14 -5 14 -11 0 -6 -6 -9 -14 -6 -8 3 -17 1 -20 -6 -3 -9 -7 -8 -14 2 -5 7 -15 10 -21 7 -22 -14 -10 -26 24 -26 l35 0 0 -60 c0 -58 -1 -59 -22 -51 -13 5 -36 6 -53 4 l-30 -5 4 54 c2 29 8 56 13 59 6 4 7 12 4 18 -4 6 -12 9 -17 6 -5 -4 -9 -1 -9 6 0 7 -3 9 -7 5 -4 -4 -6 -38 -4 -77 3 -67 2 -69 -21 -69 -20 1 -21 2 -5 11 9 5 17 22 17 36 0 22 -2 24 -15 13 -9 -7 -18 -10 -22 -6 -4 3 3 13 15 22 23 16 20 46 -4 37 -8 -3 -14 0 -14 6 0 6 5 11 11 11 6 0 8 9 4 23 -6 18 -5 20 6 10 9 -9 16 -10 26 -2z m-1038 -38 c6 -21 11 -44 11 -50 0 -29 19 -10 25 25 7 43 21 70 31 60 4 -4 12 -31 19 -60 13 -55 16 -53 35 20 6 23 15 42 20 42 13 0 13 -5 -8 -80 -22 -76 -41 -84 -57 -23 -14 57 -22 61 -29 16 -15 -87 -36 -82 -60 13 -19 73 -19 74 -6 74 5 0 14 -17 19 -37z m701 14 c0 -20 4 -23 30 -19 25 4 31 0 40 -23 14 -37 13 -43 -13 -69 -17 -17 -31 -22 -50 -19 -26 5 -27 7 -27 79 0 43 4 74 10 74 6 0 10 -10 10 -23z m1230 -54 l0 -68 -65 0 -65 0 0 68 0 67 65 0 65 0 0 -67z m-1481 15 c12 -31 6 -38 -35 -38 -19 0 -34 -4 -34 -10 0 -14 31 -28 51 -23 11 3 19 0 19 -6 0 -6 -16 -11 -35 -11 -56 0 -78 51 -42 98 17 21 67 15 76 -10z"/><path d="M2526 2945 c5 -22 3 -25 -20 -25 -27 0 -66 -31 -66 -52 1 -19 39 -100 56 -119 33 -37 -41 -97 -131 -106 -129 -13 -235 85 -223 208 2 28 0 38 -8 35 -90 -35 -165 -71 -179 -86 -59 -65 87 -240 237 -285 65 -19 176 -19 247 0 186 49 290 172 299 354 4 64 1 85 -9 92 -8 5 -58 9 -112 9 l-97 0 6 -25z"/><path d="M2783 2861 c0 -162 -47 -270 -149 -340 l-49 -34 50 8 c77 11 251 71 343 118 45 23 119 69 163 101 l82 59 -39 20 c-21 10 -73 38 -114 62 -83 47 -170 81 -241 94 l-47 8 1 -96z"/><path d="M1790 2735 c-36 -19 -100 -49 -144 -67 l-78 -32 73 -19 c41 -10 146 -37 234 -62 234 -64 230 -63 158 -15 -91 61 -163 153 -163 210 0 26 -3 25 -80 -15z"/><path d="M3953 1999 c-61 -18 -100 -102 -90 -191 11 -93 56 -138 137 -138 90 0 134 57 133 170 0 72 -18 118 -56 143 -32 21 -85 28 -124 16z"/><path d="M1930 1940 l0 -60 58 0 c73 0 102 18 102 65 0 28 -5 35 -31 44 -18 6 -54 11 -80 11 l-49 0 0 -60z"/><path d="M1930 1750 l0 -83 76 6 c60 4 81 10 100 28 29 27 31 68 5 100 -17 21 -30 24 -100 27 l-81 4 0 -82z"/><path d="M2360 1435 c0 -8 7 -15 15 -15 8 0 15 7 15 15 0 8 -7 15 -15 15 -8 0 -15 -7 -15 -15z"/><path d="M2406 1435 c-4 -10 1 -15 14 -15 11 0 20 7 20 15 0 8 -6 15 -14 15 -8 0 -16 -7 -20 -15z"/><path d="M2360 1385 c0 -8 7 -15 15 -15 8 0 15 7 15 15 0 8 -7 15 -15 15 -8 0 -15 -7 -15 -15z"/><path d="M2406 1385 c4 -8 12 -15 20 -15 8 0 14 7 14 15 0 8 -9 15 -20 15 -13 0 -18 -5 -14 -15z"/><path d="M1990 1416 c0 -19 6 -36 13 -39 24 -8 37 6 37 39 0 30 -3 34 -25 34 -22 0 -25 -4 -25 -34z"/><path d="M3107 1484 c-4 -4 -7 -27 -7 -51 l0 -43 56 0 55 0 -3 48 -3 47 -45 3 c-25 2 -49 0 -53 -4z"/><path d="M1683 1453 c-22 -8 -14 -23 12 -23 14 0 25 4 25 9 0 11 -21 19 -37 14z"/></g></svg>
