<?xml version="1.0" standalone="no"?>
<!DOCTYPE svg PUBLIC "-//W3C//DTD SVG 20010904//EN"
 "http://www.w3.org/TR/2001/REC-SVG-20010904/DTD/svg10.dtd">
<svg version="1.0" xmlns="http://www.w3.org/2000/svg"
 width="1024.000000pt" height="1024.000000pt" viewBox="0 0 1024.000000 1024.000000"
 preserveAspectRatio="xMidYMid meet">

<g transform="translate(0.000000,1024.000000) scale(0.100000,-0.100000)"
fill="#000000" stroke="none">
<path d="M6023 7555 l-93 -73 -111 34 c-61 19 -113 34 -115 34 -2 0 9 -30 23
-67 14 -38 32 -89 41 -114 l15 -46 -68 -98 -69 -98 121 7 120 6 74 -97 73 -98
14 50 c7 28 22 80 33 117 l19 66 85 31 c47 17 96 33 110 37 14 3 25 9 25 13 0
3 -41 33 -91 65 -49 32 -93 64 -97 70 -4 6 -9 61 -12 122 l-5 112 -92 -73z"/>
<path d="M5326 7461 c-3 -4 -29 -27 -59 -49 l-53 -41 -77 24 c-42 13 -77 23
-77 22 0 -1 13 -36 29 -77 l29 -75 -44 -62 c-24 -34 -44 -65 -44 -69 0 -3 35
-4 78 0 l77 7 50 -66 50 -66 12 38 c6 21 17 56 22 79 11 40 12 41 86 64 41 13
75 26 75 29 0 3 -30 25 -65 49 l-65 42 0 80 c0 71 -9 97 -24 71z"/>
<path d="M4766 7139 c-55 -44 -55 -44 -122 -24 -27 8 -52 15 -56 15 -3 0 4
-28 18 -62 l24 -61 -33 -46 c-18 -25 -36 -51 -39 -56 -4 -7 17 -9 61 -7 l68 4
38 -51 c20 -29 40 -49 44 -46 3 4 13 32 22 63 l15 56 62 20 c34 11 62 22 62
25 0 3 -25 21 -55 39 l-54 33 -3 68 -3 69 -49 -39z"/>
<path d="M6145 6807 c-65 -113 -209 -261 -350 -362 -102 -73 -289 -174 -301
-162 -4 4 3 15 17 25 125 87 250 232 327 380 29 55 52 103 52 108 0 5 -19 -20
-42 -56 -91 -140 -288 -300 -482 -391 -48 -22 -89 -39 -92 -37 -2 3 15 18 39
35 65 48 159 143 211 216 49 69 142 254 132 264 -3 4 -6 2 -6 -4 0 -19 -96
-157 -150 -216 -69 -76 -198 -176 -302 -236 -90 -51 -168 -85 -168 -73 0 4 28
28 62 52 112 82 234 248 287 390 11 30 15 47 8 36 -6 -10 -33 -51 -58 -90 -64
-100 -194 -225 -324 -312 -98 -65 -248 -144 -273 -144 -22 0 -192 -75 -349
-153 -241 -121 -684 -381 -974 -573 -158 -105 -417 -225 -589 -275 -43 -12
-43 -13 -15 -17 177 -20 538 -97 1019 -218 188 -46 379 -91 426 -100 133 -23
337 -44 434 -44 72 0 95 -4 122 -20 33 -21 73 -89 75 -126 0 -15 2 -14 11 6 5
14 7 49 5 78 -3 28 -2 52 2 52 16 0 98 -59 123 -88 14 -17 29 -45 33 -62 4
-16 11 -30 17 -30 7 0 9 27 5 80 l-5 80 47 0 c41 0 51 -5 82 -37 48 -51 74
-90 98 -149 l21 -49 -7 65 c-6 69 -24 130 -49 167 -14 23 -14 23 39 23 44 0
62 -6 94 -29 69 -50 143 -154 143 -201 0 -11 5 -20 10 -20 29 0 -3 141 -50
225 -33 57 -35 71 -13 67 9 -2 47 4 85 13 65 16 71 16 114 0 51 -20 105 -80
143 -163 13 -28 28 -49 32 -46 12 7 22 108 14 153 -4 22 -18 57 -31 77 -14 20
-23 39 -20 41 3 3 42 -13 88 -35 57 -28 102 -59 142 -99 l59 -58 -6 33 c-12
59 -38 101 -100 158 -65 61 -65 68 5 79 89 15 211 -57 280 -164 19 -31 28 -39
28 -25 0 32 -26 116 -48 160 -20 39 -95 114 -114 114 -4 0 -8 4 -8 10 0 25
142 39 210 20 55 -15 126 -65 160 -111 38 -54 38 -43 -2 38 -32 65 -134 173
-164 173 -22 0 -17 16 12 35 20 13 37 15 77 10 117 -15 238 -59 319 -116 41
-29 42 -23 6 27 -56 78 -153 147 -245 174 -49 15 -48 25 1 34 105 20 227 1
329 -51 27 -13 51 -22 54 -20 9 10 -94 80 -175 119 -46 22 -82 41 -80 43 2 2
31 -2 66 -7 143 -22 336 49 537 197 76 56 202 171 148 136 -52 -35 -174 -89
-238 -106 -87 -23 -240 -30 -332 -15 -43 6 -82 14 -86 17 -5 3 36 27 90 53 54
26 131 71 171 99 78 56 227 199 283 271 l34 45 -60 -51 c-80 -68 -108 -86
-201 -132 -149 -74 -294 -113 -489 -132 -136 -12 -185 -13 -185 -1 0 5 24 17
53 27 79 26 233 106 315 164 83 58 202 168 265 244 l42 50 -70 -56 c-179 -143
-347 -218 -615 -274 -128 -26 -171 -29 -202 -13 -19 10 -12 16 70 59 190 100
359 241 475 395 102 137 103 150 5 51 -165 -165 -376 -285 -643 -364 -98 -29
-124 -29 -158 -2 -4 3 32 33 80 65 162 110 343 313 437 490 20 39 29 59 19 45
-87 -118 -205 -226 -341 -315 -114 -73 -413 -210 -411 -187 0 4 30 30 65 57
79 60 170 155 241 250 50 67 159 262 151 270 -2 3 -12 -10 -23 -28z m-727
-873 c77 -7 77 -8 69 -178 -7 -145 -24 -211 -84 -336 -38 -79 -59 -108 -132
-181 -75 -75 -102 -94 -192 -138 -384 -187 -793 -128 -1056 153 -109 117 -164
251 -133 325 9 23 33 41 99 75 81 42 281 126 300 126 4 0 4 -23 -1 -52 -19
-102 24 -237 102 -322 25 -27 70 -60 108 -78 58 -29 77 -33 168 -36 157 -6
246 29 326 129 l29 36 -55 78 c-119 165 -107 276 33 306 31 7 57 13 59 14 1 1
-5 18 -13 38 -8 20 -15 39 -15 41 0 13 241 12 388 0z m217 -29 c166 -27 339
-94 525 -205 69 -41 159 -89 200 -107 41 -18 75 -37 75 -42 0 -5 -31 -35 -70
-66 -305 -244 -680 -418 -1064 -494 -149 -30 -157 -28 -76 21 142 86 251 229
304 400 29 97 46 292 35 406 -6 51 -8 95 -5 98 2 2 12 2 20 0 9 -3 34 -8 56
-11z m-1891 -414 c10 -76 68 -180 147 -265 68 -73 208 -177 277 -205 17 -7 32
-17 32 -21 0 -14 -255 47 -465 111 -71 22 -237 67 -369 99 -131 33 -240 61
-242 63 -2 2 22 12 54 21 63 21 268 113 437 198 61 31 113 54 116 52 4 -2 9
-26 13 -53z"/>
<path d="M4357 6724 c-31 -27 -43 -29 -83 -14 -15 6 -28 9 -31 7 -2 -2 4 -21
12 -41 16 -37 15 -39 -10 -72 l-26 -34 45 0 c38 0 48 -4 66 -30 26 -36 35 -32
44 15 4 19 12 35 19 35 7 1 25 7 41 13 l30 13 -37 22 c-31 20 -36 29 -39 67
l-3 43 -28 -24z"/>
<path d="M7859 4087 c-112 -38 -185 -114 -226 -237 -28 -84 -25 -294 4 -374
50 -133 148 -213 291 -238 226 -39 411 91 453 318 14 76 5 234 -17 299 -25 73
-80 151 -132 187 -100 69 -249 87 -373 45z m258 -94 c55 -26 109 -87 134 -151
18 -46 22 -79 23 -167 1 -136 -17 -194 -80 -264 -54 -60 -115 -86 -199 -85
-157 2 -259 116 -272 305 -14 190 58 332 189 375 54 17 155 11 205 -13z"/>
<path d="M1471 3943 c21 -81 71 -271 111 -420 l71 -273 62 0 61 0 84 345 c47
189 88 345 91 345 3 0 39 -129 78 -287 40 -159 79 -314 88 -345 l16 -58 63 0
62 0 7 33 c4 17 18 73 31 122 58 218 174 668 174 677 0 5 -23 8 -52 6 l-52 -3
-82 -333 c-45 -183 -85 -340 -89 -350 -4 -10 -41 119 -94 333 l-87 350 -56 3
c-57 3 -57 3 -66 -30 -5 -18 -44 -174 -87 -346 -42 -172 -80 -310 -84 -307 -3
4 -44 158 -91 343 l-85 337 -57 3 -56 3 39 -148z"/>
<path d="M2820 3670 l0 -420 281 0 280 0 -3 48 -3 47 -220 2 -220 2 -3 155 -3
156 226 0 225 0 0 50 0 50 -225 0 -226 0 3 118 3 117 223 3 222 2 0 45 0 45
-280 0 -280 0 0 -420z"/>
<path d="M3740 3671 l0 -421 193 0 c209 0 264 9 338 56 84 53 124 166 95 267
-23 79 -68 121 -160 151 -16 5 -13 10 21 35 50 36 73 84 73 154 0 67 -27 112
-90 147 -43 24 -53 25 -257 28 l-213 4 0 -421z m384 315 c63 -26 82 -87 52
-161 -23 -55 -62 -69 -203 -73 l-123 -4 0 126 0 126 120 0 c81 0 132 -5 154
-14z m29 -337 c21 -5 52 -23 70 -39 31 -27 32 -32 32 -103 0 -66 -3 -79 -25
-102 -43 -47 -83 -58 -237 -63 l-143 -5 0 162 0 161 133 0 c72 0 149 -5 170
-11z"/>
<path d="M4710 3670 l0 -420 55 0 55 0 2 374 3 373 197 -371 196 -371 71 -3
71 -3 0 421 0 420 -50 0 -50 0 0 -342 c0 -205 -4 -338 -9 -332 -10 10 -31 48
-113 204 -31 58 -99 187 -153 288 l-97 182 -89 0 -89 0 0 -420z"/>
<path d="M5770 3670 l0 -420 275 0 275 0 0 50 c0 27 -3 49 -7 49 -5 -1 -104
-1 -220 0 l-213 1 0 155 0 155 220 0 220 0 0 50 0 50 -220 0 -220 0 0 120 0
120 220 0 220 0 0 45 0 45 -275 0 -275 0 0 -420z"/>
<path d="M6680 3670 l0 -420 55 0 55 0 0 143 0 143 46 44 45 45 25 -28 c13
-16 88 -100 165 -188 l141 -159 69 0 c38 0 69 2 69 4 0 2 -87 102 -194 222
l-194 219 112 118 c61 64 144 153 185 197 l74 80 -65 0 -65 0 -49 -52 c-26
-29 -103 -111 -170 -183 -67 -71 -134 -145 -149 -162 -15 -18 -31 -33 -36 -33
-5 0 -9 92 -9 215 l0 215 -55 0 -55 0 0 -420z"/>
<path d="M5670 3053 c1 -14 40 -56 47 -50 7 8 -24 57 -37 57 -6 0 -10 -3 -10
-7z"/>
<path d="M7250 3055 c0 -14 33 -54 41 -49 10 6 -19 54 -32 54 -5 0 -9 -2 -9
-5z"/>
<path d="M4740 3020 c0 -27 -3 -30 -30 -30 -16 0 -30 -4 -30 -8 0 -4 12 -8 28
-7 21 0 28 -5 30 -22 2 -13 7 -23 12 -23 5 0 10 10 12 23 2 17 11 23 36 25 29
3 32 1 32 -22 0 -32 17 -34 22 -3 2 18 9 22 36 22 17 0 32 3 32 7 0 4 -15 8
-32 10 -28 2 -34 8 -36 31 -4 37 -22 35 -22 -3 0 -28 -3 -30 -35 -30 -32 0
-35 2 -35 30 0 17 -4 30 -10 30 -5 0 -10 -13 -10 -30z"/>
<path d="M5620 3042 c0 -4 7 -18 16 -30 l15 -22 -130 0 c-110 0 -131 -2 -131
-15 0 -13 20 -15 124 -15 l125 0 -16 -45 c-19 -58 -91 -137 -148 -165 -45 -22
-58 -40 -29 -40 8 0 35 12 59 26 112 65 188 213 146 287 -15 26 -31 36 -31 19z"/>
<path d="M4580 3032 c0 -4 7 -18 17 -31 16 -23 15 -25 -10 -43 -33 -24 -25
-44 8 -22 27 17 25 19 41 -34 2 -8 -12 -30 -31 -49 -20 -20 -34 -38 -31 -40 7
-7 46 16 46 27 0 6 5 10 10 10 11 0 14 -88 4 -114 -4 -10 -18 -16 -36 -16 -17
0 -27 -4 -23 -10 11 -18 64 -11 75 9 13 25 13 152 0 209 -9 37 -7 46 12 72 26
36 17 52 -12 19 l-20 -24 -19 23 c-20 23 -31 28 -31 14z"/>
<path d="M7045 2999 c-11 -23 -39 -61 -62 -85 -29 -29 -39 -45 -31 -50 7 -5
30 12 60 45 l48 52 65 -3 65 -3 -24 -51 c-31 -67 -78 -119 -140 -154 -39 -23
-46 -31 -33 -36 23 -8 108 47 147 96 37 47 84 146 75 160 -3 5 -38 10 -77 10
-63 0 -69 2 -63 18 11 28 11 34 -1 39 -6 2 -19 -15 -29 -38z"/>
<path d="M7217 3010 c16 -28 33 -39 33 -22 0 13 -31 52 -41 52 -6 0 -2 -13 8
-30z"/>
<path d="M3940 2872 l0 -148 62 -2 c76 -2 103 14 118 68 13 48 0 108 -30 135
-19 17 -63 18 -102 0 -16 -6 -18 -1 -18 44 0 39 -4 51 -15 51 -13 0 -15 -23
-15 -148z m132 21 c26 -23 25 -104 -2 -128 -19 -17 -69 -23 -90 -10 -5 3 -10
34 -10 69 0 55 3 64 23 74 32 16 58 14 79 -5z"/>
<path d="M2526 2988 c4 -13 21 -77 39 -143 26 -98 35 -121 51 -123 17 -2 23
11 48 113 16 64 32 113 36 108 4 -4 15 -39 24 -78 34 -141 36 -145 56 -145 14
0 22 11 30 43 6 23 22 83 36 132 28 105 29 115 10 115 -10 0 -23 -36 -42 -115
-15 -63 -31 -115 -35 -115 -4 0 -20 52 -35 115 -22 90 -32 115 -45 115 -13 0
-23 -25 -45 -115 -15 -63 -31 -115 -34 -115 -3 0 -19 52 -34 115 -24 98 -31
115 -48 115 -16 0 -18 -4 -12 -22z"/>
<path d="M6180 2865 c0 -122 8 -161 24 -120 4 12 26 15 106 15 80 0 102 -3
106 -15 4 -8 11 -15 18 -15 8 0 10 39 8 135 l-3 135 -130 0 -129 0 0 -135z
m238 13 l3 -98 -111 0 -110 0 0 93 c0 52 3 97 7 101 4 4 52 5 107 4 l101 -3 3
-97z"/>
<path d="M3331 2914 c-55 -46 -50 -149 9 -179 52 -27 140 -16 140 17 0 16 -3
17 -21 7 -55 -29 -129 -1 -129 48 0 22 3 23 81 23 l81 0 -7 33 c-15 73 -96
100 -154 51z m107 -16 c7 -7 12 -20 12 -30 0 -15 -9 -18 -60 -18 -64 0 -76 12
-44 44 18 19 75 21 92 4z"/>
<path d="M4700 2915 c-1 -3 -1 -53 -1 -111 -1 -104 4 -133 17 -100 9 24 151
23 170 -1 11 -15 13 0 14 100 l0 117 -100 0 c-55 0 -100 -2 -100 -5z m88 -52
c3 -32 2 -33 -32 -33 -35 0 -36 1 -36 36 0 34 1 35 33 32 28 -3 32 -7 35 -35z
m92 2 c0 -33 -2 -35 -35 -35 -33 0 -35 2 -35 35 0 33 2 35 35 35 33 0 35 -2
35 -35z m-92 -92 c-3 -35 -6 -38 -35 -41 -32 -3 -33 -2 -33 37 0 40 1 41 36
41 35 0 35 -1 32 -37z m92 -3 c0 -39 -1 -40 -35 -40 -34 0 -35 1 -35 40 0 39
1 40 35 40 34 0 35 -1 35 -40z"/>
</g>
</svg>
