<svg version="1.0" xmlns="http://www.w3.org/2000/svg" width="512.000000pt" height="512.000000pt" viewBox="0 0 512.000000 512.000000" preserveAspectRatio="xMidYMid meet"><g transform="translate(0.000000,512.000000) scale(0.100000,-0.100000)" fill="#000000" stroke="none"><path d="M3010 3776 l-46 -35 -48 14 c-27 8 -53 15 -57 15 -5 0 1 -21 11 -46 25 -58 26 -57 -10 -109 -16 -24 -30 -45 -30 -47 0 -2 26 -2 58 0 l57 4 34 -47 c37 -51 45 -49 56 17 8 43 16 51 70 68 60 19 60 20 6 53 l-50 31 -3 59 -3 58 -45 -35z"/><path d="M2636 3708 c-24 -18 -34 -20 -66 -11 l-38 10 13 -37 c12 -33 11 -40 -7 -68 l-20 -32 39 0 c31 0 42 -5 58 -30 11 -16 23 -30 26 -30 3 0 10 17 15 37 7 30 15 39 42 47 39 11 40 16 3 44 -21 15 -31 32 -33 56 l-3 35 -29 -21z"/><path d="M2385 3571 c-16 -18 -26 -21 -56 -16 l-38 7 11 -30 c10 -25 9 -35 -5 -56 l-17 -26 34 0 c26 0 38 -6 52 -27 l18 -28 8 33 c7 25 17 36 39 44 l31 11 -26 21 c-16 13 -26 33 -28 55 l-3 33 -20 -21z"/><path d="M3040 3358 c-19 -27 -60 -69 -90 -94 -65 -55 -188 -129 -197 -120 -4 4 4 14 18 23 38 26 89 83 126 140 18 29 33 55 33 58 0 4 -23 -19 -51 -49 -48 -53 -198 -156 -226 -156 -7 0 11 21 39 48 48 44 128 154 128 175 0 6 -13 -8 -29 -29 -41 -58 -134 -138 -201 -173 -32 -17 -61 -31 -65 -31 -4 0 18 22 48 49 32 31 66 75 86 113 17 35 24 52 14 38 -77 -107 -188 -188 -341 -249 -142 -56 -366 -180 -607 -336 -97 -64 -160 -95 -245 -125 -79 -28 -95 -40 -51 -40 44 0 196 -32 436 -91 242 -60 346 -79 436 -79 82 0 111 -12 132 -53 l16 -32 0 39 c1 38 2 38 24 24 12 -8 33 -30 46 -49 l23 -34 -4 43 c-3 40 -2 42 24 42 28 0 67 -40 87 -90 16 -42 13 8 -4 55 -8 22 -15 41 -15 43 0 1 13 2 28 2 33 0 98 -61 112 -106 8 -24 9 -22 4 16 -3 25 -13 59 -24 77 l-19 32 55 7 c66 8 92 -6 121 -66 15 -30 22 -36 27 -24 10 27 7 64 -9 94 -9 17 -13 30 -10 30 14 0 83 -40 108 -63 25 -24 27 -24 27 -7 0 11 -18 38 -40 60 l-40 40 25 6 c41 10 76 -5 123 -51 38 -38 43 -41 38 -20 -13 50 -25 73 -55 97 -24 21 -27 27 -15 32 50 19 141 -6 169 -48 23 -31 18 -8 -6 30 -11 19 -34 43 -51 55 -27 19 -28 23 -13 31 26 15 99 0 161 -32 l55 -29 -21 27 c-25 31 -97 82 -117 82 -7 0 -13 5 -13 10 0 18 112 11 158 -10 57 -26 44 -7 -21 30 l-52 30 52 0 c85 0 192 51 293 141 l35 31 -35 -20 c-77 -44 -213 -64 -289 -43 -22 6 -18 10 42 39 41 21 93 59 139 103 40 39 62 64 48 55 -62 -41 -169 -87 -234 -100 -81 -17 -186 -26 -186 -16 0 4 19 13 42 21 61 20 175 98 233 160 48 51 49 52 10 22 -103 -78 -350 -162 -394 -134 -11 7 -2 15 35 34 73 37 166 110 209 164 62 78 63 80 5 30 -96 -83 -317 -182 -365 -163 -13 5 -4 16 41 49 66 49 125 110 170 177 51 75 50 77 -7 19 -60 -62 -142 -118 -223 -154 -95 -42 -97 -38 -22 37 62 63 155 193 145 202 -2 2 -20 -19 -39 -46z m-294 -423 c8 -43 -10 -150 -36 -210 -57 -134 -217 -226 -392 -226 -92 0 -116 6 -190 42 -75 38 -123 81 -159 143 -28 50 -36 90 -21 113 7 12 138 76 177 87 18 5 20 1 21 -47 1 -101 56 -168 155 -189 69 -14 128 1 176 46 l35 32 -31 45 c-42 60 -49 101 -22 128 12 12 32 21 46 21 28 0 29 3 15 31 -10 18 -6 19 104 19 l115 0 7 -35z m178 -10 c37 -13 107 -46 155 -74 47 -27 100 -55 116 -61 l30 -12 -35 -29 c-92 -78 -232 -157 -360 -204 -71 -25 -241 -67 -247 -61 -2 2 17 16 43 32 103 65 154 180 154 345 l0 100 38 -7 c20 -3 68 -17 106 -29z m-1046 -199 c16 -61 80 -137 153 -182 96 -59 102 -60 -296 45 -88 24 -162 45 -164 47 -2 2 10 9 27 15 16 6 81 35 143 65 63 30 116 54 119 54 3 0 11 -20 18 -44z"/><path d="M2174 3359 c-3 -6 -16 -9 -28 -7 -19 4 -22 1 -18 -19 2 -13 -2 -31 -9 -40 -12 -15 -12 -16 5 -10 12 5 26 1 37 -9 16 -14 18 -14 29 5 6 12 18 21 27 21 14 0 13 4 -6 21 -12 12 -20 27 -17 35 6 16 -10 19 -20 3z"/><path d="M720 2042 c0 -4 24 -100 54 -213 l53 -204 29 3 c16 2 30 5 32 6 1 2 21 78 43 171 25 98 45 162 49 154 4 -8 25 -85 46 -171 l38 -158 33 0 c18 0 33 2 33 4 0 2 23 89 50 194 28 105 50 198 50 207 0 11 -7 15 -22 13 -21 -3 -27 -19 -65 -172 -23 -92 -44 -170 -46 -173 -5 -4 -20 52 -65 232 -25 103 -29 110 -53 113 -26 3 -27 2 -70 -172 -24 -97 -46 -172 -50 -168 -3 4 -21 66 -38 137 -53 217 -49 205 -76 205 -14 0 -25 -4 -25 -8z"/><path d="M1410 1840 l0 -210 140 0 c133 0 140 1 140 20 0 19 -7 20 -108 20 -60 0 -111 2 -113 4 -2 2 -3 38 -1 80 l4 76 109 0 109 0 0 25 c0 24 0 24 -111 27 l-112 3 0 55 0 55 112 3 c111 3 111 3 111 27 l0 25 -140 0 -140 0 0 -210z"/><path d="M1870 1841 l0 -211 113 0 c95 0 117 3 145 20 41 25 66 81 57 126 -5 31 -54 84 -77 84 -5 0 2 14 16 31 25 30 33 70 20 104 -12 31 -65 47 -171 53 l-103 5 0 -212z m211 138 c15 -15 19 -28 14 -47 -10 -41 -32 -52 -107 -52 l-68 0 0 60 0 60 70 0 c58 0 74 -4 91 -21z m23 -170 c26 -20 34 -57 20 -94 -11 -28 -60 -45 -134 -45 l-70 0 0 80 0 80 79 0 c64 0 83 -4 105 -21z"/><path d="M2360 1837 l0 -214 25 5 25 4 2 182 3 181 95 -180 96 -180 37 -3 37 -3 0 210 0 211 -25 0 -25 0 0 -172 c0 -94 -3 -168 -7 -164 -4 4 -46 80 -94 169 l-86 162 -41 3 -42 3 0 -214z"/><path d="M2887 2043 c-4 -3 -7 -98 -7 -210 l0 -203 140 0 c133 0 140 1 140 20 0 19 -7 20 -110 20 l-110 0 0 80 0 80 110 0 110 0 0 25 0 25 -110 0 -110 0 0 60 0 60 110 0 110 0 0 25 0 25 -133 0 c-74 0 -137 -3 -140 -7z"/><path d="M3340 1841 l0 -211 30 0 30 0 0 73 c0 62 3 77 21 93 21 19 21 18 38 -2 9 -11 45 -53 80 -92 56 -63 68 -72 98 -72 l35 0 -34 39 c-18 21 -61 70 -96 108 l-62 71 90 95 c49 52 90 98 90 101 0 3 -12 6 -27 6 -23 0 -47 -21 -128 -110 -55 -60 -102 -110 -105 -110 -3 0 -5 48 -5 107 l0 108 -27 3 -28 3 0-210z"/><path d="M3893 2025 c-57 -34 -86 -96 -86 -184 -1 -83 14 -129 56 -169 40 -39 75 -52 137 -52 124 0 189 75 190 216 0 143 -63 214 -190 214 -51 0 -74 -5 -107 -25z m175 -35 c89 -55 95 -248 8 -305 -61 -40 -145 -23 -190 38 -29 39 -30 179 -3 220 42 64 123 84 185 47z"/><path d="M2840 1521 c0 -6 4 -13 10 -16 6 -3 7 1 4 9 -7 18 -14 21 -14 7z"/><path d="M3630 1521 c0 -6 4 -13 10 -16 6 -3 7 1 4 9 -7 18 -14 21 -14 7z"/><path d="M2294 1506 c3 -10 1 -25 -5 -32 -9 -12 -9 -13 4 -9 24 10 31 -14 11 -36 -16 -18 -16 -19 -1 -13 14 5 17 0 17 -24 0 -19 -6 -32 -15 -35 -11 -4 -10 -4 2 -3 15 1 18 12 18 71 0 64 2 70 20 67 11 -2 23 -9 26 -14 4 -6 8 -5 11 3 4 12 9 12 27 1 12 -7 21 -8 21 -2 0 5 8 10 18 11 13 0 14 2 2 6 -8 3 -18 11 -22 17 -5 8 -8 7 -8 -1 0 -7 -9 -13 -19 -13 -11 0 -22 6 -24 13 -4 10 -6 10 -6 0 -1 -16 -31 -17 -31 -2 0 8 -4 8 -13 0 -10 -8 -17 -7 -27 2 -10 10 -12 8 -6 -7z"/><path d="M2816 1506 c5 -12 -6 -16 -58 -19 l-63 -3 63 -2 c34 -1 62 -5 62 -9 0 -20 -44 -76 -70 -91 -16 -9 -30 -21 -30 -25 0 -15 61 27 82 55 23 33 35 93 19 102 -7 4 -9 1 -5 -8z"/><path d="M3503 1473 c-34 -45 -29 -62 5 -18 14 17 30 25 51 25 44 0 40 -24 -13 -76 -46 -46 -47 -58 -2 -23 22 18 66 86 66 104 0 3 -15 5 -34 5 -20 0 -36 5 -38 13 -2 7 -17 -6 -35 -30z"/><path d="M3600 1516 c0 -2 8 -10 18 -17 15 -13 16 -12 3 4 -13 16 -21 21 -21 13z"/><path d="M1971 1438 l-1 -78 33 0 c41 0 57 15 57 56 0 39 -21 58 -54 50 -21 -5 -25 -2 -29 21 -2 16 -5 -7 -6 -49z m70 -2 c11 -24 -2 -66 -21 -66 -40 0 -57 59 -22 79 25 15 31 13 43 -13z"/><path d="M1265 1488 c2 -7 11 -39 20 -70 8 -32 20 -58 25 -58 5 0 14 25 21 55 7 30 15 55 19 55 4 0 11 -19 14 -42 7 -46 21 -76 31 -67 11 11 42 139 34 139 -5 0 -13 -19 -19 -42 -19 -74 -22 -75 -37 -15 -9 31 -19 57 -24 57 -4 0 -13 -19 -19 -42 -19 -73 -22 -75 -36 -23 -7 28 -13 53 -14 58 0 4 -4 7 -10 7 -5 0 -8 -6 -5 -12z"/><path d="M3091 1428 c0 -40 3 -67 6 -60 3 7 25 12 58 12 33 0 55 -5 58 -12 3 -7 6 20 6 60 l1 72 -65 0 -65 0 1 -72z m119 12 l0 -50 -55 0 -55 0 0 50 0 50 55 0 55 0 0 -50z"/><path d="M1662 1458 c-7 -7 -12 -26 -12 -43 0 -17 5 -36 12 -43 15 -15 64 -16 73 -2 4 7 -2 9 -18 5 -16 -4 -30 -1 -42 12 -18 17 -17 18 23 21 32 2 42 7 42 21 0 23 -19 41 -45 41 -12 0 -26 -5 -33 -12z m58 -13 c13 -16 12 -17 -25 -17 -14 0 -28 0 -31 1 -11 2 18 31 31 31 7 0 18 -7 25 -15z"/><path d="M2350 1408 l0 -53 50 0 50 0 0 53 0 52 -50 0 -50 0 0 -52z m40 2 c0 -29 -4 -40 -15 -40 -11 0 -15 11 -15 40 0 29 4 40 15 40 11 0 15 -11 15 -40z m48 0 c1 -32 -3 -40 -17 -40 -15 0 -18 8 -18 40 0 31 3 40 17 40 14 0 18 -9 18 -40z"/></g></svg>
