<svg version="1.0" xmlns="http://www.w3.org/2000/svg" width="300.000000pt" height="300.000000pt" viewBox="0 0 300.000000 300.000000" preserveAspectRatio="xMidYMid meet"><g transform="translate(0.000000,300.000000) scale(0.100000,-0.100000)" fill="#000000" stroke="none"><path d="M1110 2350 c-18 -18 -20 -31 -18 -103 l3 -82 140 -5 c163 -6 180 -12 250 -95 l47 -55 358 0 c354 0 357 0 390 -22 18 -13 43 -36 54 -51 20 -27 21 -42 24 -338 l3 -310 92 3 c86 3 92 4 104 28 10 19 13 126 13 440 0 360 -2 419 -16 438 l-15 22 -371 0 -371 0 -31 36 c-17 20 -45 53 -63 73 l-31 36 -271 3 c-262 3 -271 2 -291 -18z"/><path d="M781 2021 c-16 -16 -19 -32 -18 -103 l2 -83 140 -5 c163 -6 180 -12 250 -95 l47 -55 358 0 c354 0 357 0 390 -22 18 -13 43 -36 54 -51 20 -27 21 -42 24 -338 l3 -309 84 0 c137 0 126 -41 123 476 -3 373 -5 436 -18 444 -9 6 -169 10 -384 10 l-369 0 -31 36 c-17 20 -45 53 -63 73 l-31 36 -271 3 c-257 3 -271 2 -290 -17z"/><path d="M449 1694 c-12 -14 -14 -103 -14 -526 0 -493 1 -510 19 -524 17 -12 131 -14 718 -14 690 0 698 0 718 20 21 21 21 29 18 456 -3 373 -5 436 -18 444 -9 6 -168 10 -382 10 l-366 0 -30 33 c-16 17 -45 50 -65 72 l-35 40 -275 3 c-248 3 -275 1 -288 -14z"/></g></svg>
