<svg version="1.0" xmlns="http://www.w3.org/2000/svg" width="300.000000pt" height="300.000000pt" viewBox="0 0 300.000000 300.000000" preserveAspectRatio="xMidYMid meet"><g transform="translate(0.000000,260.000000) scale(0.100000,-0.100000)" fill="#000000" stroke="none"><path d="M885 1971 c-194 -70 -482 -262 -570 -382 l-45 -61 6 -91 c8 -131 29 -242 77 -402 31 -107 42 -161 45 -229 4 -113 -6 -137 -78 -186 -54 -37 -63 -39 -141 -42 -71 -3 -84 -6 -87 -21 -3 -16 4 -17 92 -11 l95 7 82 -54 82 -53 -34 -15 c-19 -7 -77 -17 -129 -22 -168 -15 -275 -47 -247 -75 2 -3 53 4 111 15 59 12 119 21 134 21 15 0 58 -16 96 -36 l68 -36 -37 -25 c-19 -13 -54 -31 -77 -39 -58 -20 -145 -72 -152 -90 -11 -28 21 -26 70 5 27 16 50 29 51 27 1 -1 -7 -21 -19 -45 -11 -23 -23 -62 -26 -86 -4 -43 -4 -45 22 -45 23 0 26 4 26 33 1 47 31 106 84 159 57 57 114 78 215 78 96 0 160 -28 219 -95 37 -43 72 -120 72 -162 0 -7 11 -13 26 -13 24 0 25 3 19 32 -15 72 -28 106 -61 151 -67 92 -159 137 -283 137 -51 0 -78 6 -116 26 l-50 25 45 -5 c25 -3 64 -8 88 -12 35 -5 42 -4 42 10 0 18 -37 36 -78 36 -23 1 -25 2 -9 11 26 15 21 35 -17 58 -62 39 -64 56 -2 23 33 -18 66 -32 73 -32 23 0 14 28 -15 48 -32 23 -135 62 -162 62 -28 0 -25 10 11 44 42 40 49 63 49 171 0 395 283 774 675 904 448 149 957 13 1208 -322 148 -198 202 -343 214 -580 6 -126 6 -127 40 -167 l34 -39 -49 -14 c-66 -20 -148 -63 -155 -81 -3 -8 0 -19 7 -25 10 -8 26 -4 62 15 l49 26 -32 -27 c-21 -16 -33 -36 -33 -51 0 -18 -5 -24 -23 -24 -26 0 -47 -17 -47 -38 0 -11 9 -13 43 -8 23 4 62 9 87 12 l45 5 -40 -22 c-30 -17 -64 -24 -140 -29 -74 -5 -111 -13 -143 -29 -97 -50 -173 -149 -188 -248 -6 -41 -6 -43 20 -43 22 0 26 5 26 28 1 73 79 177 165 218 71 34 189 34 260 0 86 -41 164 -145 165 -218 0 -23 4 -28 26 -28 26 0 26 1 19 48 -3 26 -17 66 -30 89 -13 24 -21 43 -18 43 3 0 28 -13 55 -30 58 -36 70 -37 66 -8 -3 21 -66 58 -184 110 -85 37 -85 41 -8 82 37 20 81 36 96 36 15 0 75 -9 134 -21 58 -11 109 -18 111 -15 28 28 -79 60 -247 75 -52 5 -110 15 -129 22 l-34 15 82 53 82 54 95 -7 c88 -6 95 -5 92 11 -3 15 -17 19 -89 23 -78 5 -91 8 -138 40 -28 19 -58 49 -66 67 -25 52 -19 162 14 272 68 221 101 388 101 510 0 65 -2 72 -38 118 -56 70 -134 138 -243 209 -104 69 -266 153 -342 178 -66 22 -171 20 -224 -4 -59 -26 -151 -91 -195 -137 l-38 -39 -75 7 c-41 3 -109 3 -150 0 -71 -6 -76 -5 -91 17 -20 30 -125 107 -196 143 -48 24 -69 29 -130 28 -43 0 -94 -8 -123 -18z m82 -88 c-24 -32 -79 -107 -122 -168 -108 -152 -212 -280 -278 -342 -71 -68 -103 -71 -156 -15 -48 51 -94 137 -86 162 9 27 119 138 185 187 158 115 393 230 473 232 l28 1 -44 -57z m1249 -13 c210 -102 411 -253 458 -344 13 -26 12 -31 -16 -80 -43 -73 -96 -126 -129 -126 -14 0 -41 10 -60 23 -47 32 -181 193 -311 377 -61 85 -124 170 -142 189 l-31 34 55 -7 c37 -5 94 -26 176 -66z m-978 -30 c29 -22 50 -45 47 -49 -2 -5 -25 -12 -50 -15 -103 -16 -261 -81 -362 -149 -29 -20 -53 -33 -53 -30 0 3 24 37 53 77 29 39 64 87 77 106 36 53 80 102 113 127 l30 22 46 -24 c26 -13 71 -42 99 -65z m744 33 c30 -32 207 -277 203 -281 -1 -1 -41 22 -89 52 -91 57 -223 111 -318 129 -32 6 -58 13 -58 17 0 13 68 70 124 104 54 32 61 34 85 21 14 -7 38 -26 53 -42z m-1503 -602 c28 2 51 3 51 1 0 -2 -12 -24 -27 -50 -15 -25 -41 -88 -59 -140 l-31 -94 -31 114 c-31 112 -52 215 -52 250 0 13 14 4 49 -33 48 -50 50 -51 100 -48z m2176 -27 c-13 -65 -34 -150 -46 -189 l-21 -69 -28 86 c-15 48 -44 117 -65 155 -21 37 -32 62 -24 56 7 -7 35 -13 62 -13 45 0 52 3 95 49 26 27 48 48 49 47 1 -1 -9 -56 -22 -122z"/><path d="M869 1046 c-126 -34 -249 -162 -249 -259 0 -51 54 -148 111 -202 77 -72 125 -90 239 -90 85 0 101 3 148 28 105 55 192 162 192 237 0 74 -79 194 -162 247 -76 48 -189 64 -279 39z m229 -55 c91 -47 172 -152 172 -223 0 -77 -91 -182 -189 -219 -69 -26 -185 -23 -243 5 -94 46 -178 157 -178 236 0 74 94 177 194 212 69 25 184 20 244 -11z"/><path d="M905 916 c-17 -7 -43 -28 -58 -45 -90 -108 9 -273 149 -246 46 8 101 58 115 105 37 124 -89 237 -206 186z"/><path d="M1920 1044 c-113 -41 -210 -150 -235 -261 -16 -77 84 -210 200 -265 51 -24 73 -28 142 -28 103 0 169 23 239 84 51 45 106 134 119 193 15 72 -80 204 -185 259 -46 23 -70 28 -145 31 -65 2 -103 -1 -135 -13z m217 -39 c100 -30 203 -139 203 -215 0 -79 -84 -190 -178 -236 -22 -11 -67 -20 -112 -22 -100 -5 -168 20 -239 88 -81 77 -98 137 -62 216 66 145 229 216 388 169z"/><path d="M1975 916 c-102 -44 -124 -181 -41 -254 62 -54 140 -54 201 -1 62 55 70 148 18 210 -47 55 -116 72 -178 45z"/><path d="M1750 459 c-41 -25 -50 -37 -87 -105 -25 -48 -29 -51 -51 -43 -13 5 -44 24 -68 41 l-44 31 -42 -30 c-96 -69 -181 -86 -275 -54 -73 25 -93 26 -93 7 0 -25 103 -56 183 -56 60 0 82 5 132 30 33 16 67 35 76 42 14 9 26 6 65 -20 27 -17 70 -36 96 -42 66 -17 173 -9 231 17 46 22 47 23 47 68 0 112 -82 167 -170 114z m105 -44 c35 -34 34 -87 0 -103 -41 -19 -44 -15 -38 38 5 40 3 50 -9 50 -10 0 -17 -17 -24 -52 l-9 -53 -47 -3 c-27 -2 -48 0 -48 3 0 14 50 102 66 116 41 35 77 37 109 4z"/><path d="M467 104 c-4 -4 -7 -29 -7 -56 0 -45 2 -48 26 -48 24 0 25 2 22 52 -2 38 -7 54 -18 56 -9 1 -19 0 -23 -4z"/><path d="M687 104 c-4 -4 -7 -29 -7 -56 0 -45 2 -48 26 -48 24 0 25 2 22 52 -2 38 -7 54 -18 56 -9 1 -19 0 -23 -4z"/><path d="M2277 104 c-4 -4 -7 -29 -7 -56 0 -45 2 -48 26 -48 24 0 25 2 22 52 -2 38 -7 54 -18 56 -9 1 -19 0 -23 -4z"/><path d="M2497 104 c-4 -4 -7 -29 -7 -56 0 -45 2 -48 26 -48 24 0 25 2 22 52 -2 38 -7 54 -18 56 -9 1 -19 0 -23 -4z"/></g></svg>