<svg version="1.0" xmlns="http://www.w3.org/2000/svg" width="512.000000pt" height="512.000000pt" viewBox="0 0 512.000000 512.000000" preserveAspectRatio="xMidYMid meet"><g transform="translate(0.000000,512.000000) scale(0.100000,-0.100000)" fill="#000000" stroke="none"><path d="M2615 3590 c-1353 -489 -2480 -897 -2504 -906 -24 -9 -58 -29 -75 -45 -27 -24 -31 -34 -31 -77 0 -40 5 -56 25 -77 14 -15 192 -141 397 -280 l371 -254 1594 840 c876 462 1630 860 1676 885 45 24 82 42 82 40 0 -2 -637 -480 -1415 -1061 l-1415 -1057 0 -449 c0 -436 1 -450 20 -469 42 -42 63 -32 400 191 176 116 326 209 333 206 7 -3 150 -98 318 -213 167 -114 319 -212 336 -217 39 -12 104 12 127 48 8 12 521 858 1141 1880 1018 1678 1126 1860 1116 1881 -6 13 -16 24 -23 24 -7 -1 -1120 -401 -2473 -890z"/></g></svg>
