<svg version="1.0" xmlns="http://www.w3.org/2000/svg" width="626.000000pt" height="626.000000pt" viewBox="0 0 626.000000 626.000000" preserveAspectRatio="xMidYMid meet"><g transform="translate(0.000000,626.000000) scale(0.100000,-0.100000)" fill="#000000" stroke="none"><path d="M5960 6246 c-25 -6 -158 -73 -295 -148 -138 -75 -286 -155 -330 -178 -44 -24 -168 -91 -275 -150 -107 -59 -240 -131 -295 -160 -77 -41 -384 -206 -645 -349 -8 -4 -51 -27 -95 -51 -44 -23 -177 -95 -295 -160 -118 -64 -249 -135 -290 -157 -41 -22 -178 -97 -305 -166 -331 -180 -342 -186 -425 -230 -41 -22 -147 -79 -235 -127 -88 -48 -189 -103 -225 -122 -36 -20 -90 -49 -120 -65 -30 -17 -91 -49 -135 -73 -44 -23 -177 -95 -295 -160 -118 -64 -255 -139 -305 -165 -49 -26 -182 -98 -295 -160 -113 -61 -250 -136 -305 -165 -55 -29 -192 -104 -305 -165 -113 -62 -241 -132 -285 -155 -109 -59 -142 -86 -172 -145 -52 -100 -25 -222 65 -291 45 -34 55 -38 262 -99 69 -20 159 -47 200 -60 41 -13 107 -33 145 -44 39 -11 153 -46 255 -77 102 -31 194 -58 205 -61 11 -3 54 -15 95 -28 41 -13 131 -40 200 -60 246 -73 248 -73 254 -103 3 -15 15 -101 26 -192 11 -91 22 -183 26 -205 6 -47 79 -620 99 -785 70 -571 73 -588 100 -647 53 -117 158 -123 265 -14 40 40 103 123 180 234 8 12 52 74 97 137 45 63 103 144 128 180 53 74 164 231 195 275 137 192 203 280 210 278 4 -1 318 -312 697 -691 543 -543 699 -693 738 -712 121 -59 265 -2 318 125 28 67 1458 5807 1460 5860 4 107 -75 206 -185 233 -55 14 -50 14 -108 -2z m-310 -713 c0 -5 -271 -1092 -602 -2416 l-602 -2408 -682 682 -682 682 51 71 c29 39 59 81 67 92 8 12 42 59 75 104 33 46 78 108 100 140 22 31 66 92 97 136 52 71 232 321 288 399 12 17 75 104 140 195 65 91 128 179 140 195 12 17 38 53 58 80 20 28 57 79 82 113 25 35 70 98 101 140 138 191 180 249 199 277 12 17 68 95 126 175 57 80 135 187 172 239 37 51 111 154 164 227 53 74 92 134 87 134 -6 0 -30 -15 -54 -32 -24 -18 -59 -43 -77 -56 -18 -13 -100 -72 -183 -131 -149 -107 -473 -338 -550 -393 -53 -37 -88 -62 -376 -267 -134 -96 -280 -200 -324 -232 -44 -32 -93 -68 -110 -79 -16 -12 -97 -70 -180 -129 -174 -125 -518 -371 -630 -449 -22 -16 -155 -111 -295 -211 -140 -101 -260 -185 -267 -188 -7 -3 -74 14 -150 37 -76 23 -176 53 -223 67 -47 14 -119 35 -160 48 -41 13 -185 56 -320 96 -135 40 -249 76 -253 79 -10 9 23 28 313 183 41 22 172 93 290 157 118 65 256 139 305 165 50 26 187 101 305 165 118 65 244 133 280 152 36 19 101 54 145 78 44 23 177 95 295 160 118 64 251 136 295 160 44 24 177 96 295 160 118 65 256 139 305 165 50 26 212 114 360 195 149 81 311 168 360 195 50 26 187 100 305 165 118 64 244 133 280 152 214 114 279 150 438 239 169 93 202 108 202 92z"/></g></svg>
