<svg version="1.1" id="sq-hatebu" xmlns="http://www.w3.org/2000/svg" xmlns:xlink="http://www.w3.org/1999/xlink" x="0px" y="0px" width="1024px" height="1024px" viewBox="0 0 1024 1024" enable-background="new 0 0 1024 1024" xml:space="preserve"><path d="M450.95,472.227c9.849-5.964,14.944-15.621,14.944-30.576s-4.57-25.491-13.882-31.648c-9.259-6.094-27.422-9.14-54.5-9.14 h-23.376v80.161h21.628C422.647,481.023,441.111,478.213,450.95,472.227z"/><path d="M468.179,562.581c-9.666-6.674-27.947-10.02-54.317-10.02h-39.726v87.006h38.149c25.662,0,43.944-3.153,54.661-9.678 l-0.171,0.193c10.899-6.501,16.166-15.471,16.166-32.335C482.94,580.862,477.845,569.252,468.179,562.581z"/><path d="M902.656,121.856C870.57,89.088,831.658,72.704,785.92,72.704H238.08c-45.739,0.683-84.651,17.066-116.736,49.152 c-32.085,32.085-48.128,70.656-48.128,115.712v548.864c0,44.374,16.043,82.944,48.128,115.712 c32.085,32.77,70.998,49.152,116.736,49.152h547.84c45.738-0.683,84.65-17.065,116.736-49.152 c32.085-32.085,48.128-70.654,48.128-115.712V237.568C950.784,193.195,934.741,154.624,902.656,121.856z M657.824,312.461h87.887 V578.78h-87.887V312.461z M572.598,653.986c-8.818,16.071-22.229,29.182-38.492,37.614c-13.55,7.208-30.245,12.486-50.284,15.641 c-20.041,3.047-52.73,4.571-98.079,4.571H272.891V312.461h109.504c45.004,0,76.46,1.223,94.398,4.206 c17.928,3.004,33.215,8.11,46.046,15.127c14.076,7.53,25.769,18.86,33.75,32.678c7.897,14.634,11.888,31.027,11.587,47.656 c0,22.68-5.621,40.424-17.208,53.964c-11.607,13.517-29.889,23.559-55.196,30.404c28.354,2.103,50.52,12.08,66.439,29.889 c16.007,17.745,23.904,41.476,23.904,71.193C586.116,619.013,581.566,637.829,572.598,653.986z M701.768,711.983 c-27.938,0-50.597-22.658-50.597-50.616c0-27.957,22.659-50.617,50.597-50.617c27.979,0,50.638,22.66,50.638,50.617 C752.405,689.325,729.746,711.983,701.768,711.983z"/></svg>
