<svg version="1.0" xmlns="http://www.w3.org/2000/svg" width="512.000000pt" height="512.000000pt" viewBox="0 0 512.000000 512.000000" preserveAspectRatio="xMidYMid meet"><g transform="translate(0.000000,512.000000) scale(0.100000,-0.100000)" fill="#000000" stroke="none"><path d="M3290 2580 l0 -600 605 0 605 0 0 600 0 600 -605 0 -605 0 0 -600z m760 453 c76 -20 130 -54 183 -113 73 -82 92 -140 92 -295 0 -104 -4 -140 -19 -180 -60 -158 -184 -242 -373 -253 -167 -9 -292 34 -378 130 -107 119 -133 354 -55 513 34 70 49 89 112 137 104 79 281 104 438 61z"/><path d="M3825 3020 c-108 -12 -164 -37 -232 -105 -52 -52 -64 -72 -83 -131 -25 -83 -29 -233 -6 -306 33 -110 105 -190 205 -230 76 -30 268 -32 350 -5 117 40 187 112 223 230 30 101 23 257 -16 342 -70 155 -226 227 -441 205z"/><path d="M660 2611 c0 -269 4 -422 10 -426 7 -4 10 130 10 394 0 221 3 401 8 400 4 0 133 -182 286 -404 153 -222 283 -402 288 -399 12 8 10 854 -2 854 -6 0 -10 -140 -10 -400 0 -220 -3 -400 -7 -399 -5 0 -132 180 -283 399 -151 220 -281 399 -287 400 -10 0 -13 -90 -13 -419z"/><path d="M1650 2605 l0 -425 255 0 c163 0 255 4 255 10 0 6 -88 10 -245 10 l-245 0 0 220 0 220 179 0 c109 0 182 4 186 10 4 7 -58 10 -179 10 l-186 0 0 175 0 175 245 0 c157 0 245 4 245 10 0 6 -92 10 -255 10 l-255 0 0 -425z"/><path d="M2550 2605 c0 -277 3 -425 10 -425 6 0 10 58 10 153 l0 153 70 69 c69 69 70 69 89 50 10 -11 92 -110 181 -220 89 -110 169 -202 178 -204 13 -2 14 0 6 10 -6 8 -91 112 -188 231 -97 120 -176 221 -176 226 0 4 18 26 41 47 114 111 319 335 307 335 -9 0 -123 -112 -254 -250 -132 -137 -242 -250 -246 -250 -5 0 -8 113 -8 250 0 160 -4 250 -10 250 -7 0 -10 -148 -10 -425z"/></g></svg>
