<?xml version="1.0" encoding="UTF-8"?>
<!DOCTYPE svg PUBLIC "-//W3C//DTD SVG 1.1//EN" "http://www.w3.org/Graphics/SVG/1.1/DTD/svg11.dtd">
<svg xmlns="http://www.w3.org/2000/svg" version="1.1" width="60px" height="60px" style="shape-rendering:geometricPrecision; text-rendering:geometricPrecision; image-rendering:optimizeQuality; fill-rule:evenodd; clip-rule:evenodd" xmlns:xlink="http://www.w3.org/1999/xlink">
<g><path style="opacity:0.998" fill="#83f0c2" d="M 31.5,22.5 C 30.6618,22.8417 30.3284,23.5084 30.5,24.5C 29.8333,24.5 29.5,24.8333 29.5,25.5C 28.6618,25.8417 28.3284,26.5084 28.5,27.5C 27.6618,27.8417 27.3284,28.5084 27.5,29.5C 26.6618,29.8417 26.3284,30.5084 26.5,31.5C 25.8333,31.5 25.5,31.8333 25.5,32.5C 24.6618,32.8417 24.3284,33.5084 24.5,34.5C 23.6618,34.8417 23.3284,35.5084 23.5,36.5C 22.8333,36.5 22.5,36.8333 22.5,37.5C 21.6618,37.8417 21.3284,38.5084 21.5,39.5C 20.6618,39.8417 20.3284,40.5084 20.5,41.5C 19.6618,41.8417 19.3284,42.5084 19.5,43.5C 18.1667,44.5 18.1667,45.5 19.5,46.5C 19.5,47.1667 19.5,47.8333 19.5,48.5C 14.1563,48.666 8.82294,48.4994 3.5,48C 1.60407,46.1917 1.10407,44.025 2,41.5C 8.04105,31.2501 14.2077,21.0835 20.5,11C 22.9115,9.41082 25.0782,9.91082 27,12.5C 29.324,15.4799 30.824,18.8133 31.5,22.5 Z"/></g>
<g><path style="opacity:0.004" fill="#163720" d="M 41.5,16.5 C 42.1667,15.1667 42.8333,15.1667 43.5,16.5C 42.8333,16.5 42.1667,16.5 41.5,16.5 Z"/></g>
<g><path style="opacity:0.004" fill="#00ff00" d="M 43.5,16.5 C 44.8333,17.1667 44.8333,17.1667 43.5,16.5 Z"/></g>
<g><path style="opacity:0.998" fill="#19de85" d="M 41.5,16.5 C 47.4307,25.3676 53.0973,34.3676 58.5,43.5C 58.5,44.1667 58.5,44.8333 58.5,45.5C 57.6618,45.8417 57.3284,46.5084 57.5,47.5C 56.8333,47.5 56.5,47.8333 56.5,48.5C 45.8281,48.6665 35.1615,48.4998 24.5,48C 22.8446,46.5557 22.178,44.7224 22.5,42.5C 23.3382,42.1583 23.6716,41.4916 23.5,40.5C 24.3382,40.1583 24.6716,39.4916 24.5,38.5C 25.1667,38.5 25.5,38.1667 25.5,37.5C 26.3382,37.1583 26.6716,36.4916 26.5,35.5C 27.3382,35.1583 27.6716,34.4916 27.5,33.5C 28.3382,33.1583 28.6716,32.4916 28.5,31.5C 29.1667,31.5 29.5,31.1667 29.5,30.5C 30.3382,30.1583 30.6716,29.4916 30.5,28.5C 31.3382,28.1583 31.6716,27.4916 31.5,26.5C 32.1667,26.5 32.5,26.1667 32.5,25.5C 33.3382,25.1583 33.6716,24.4916 33.5,23.5C 34.3382,23.1583 34.6716,22.4916 34.5,21.5C 35.9335,20.1667 37.2668,18.6667 38.5,17C 39.448,16.5172 40.448,16.3505 41.5,16.5 Z"/></g>
<g><path style="opacity:0.016" fill="#5def8f" d="M 34.5,21.5 C 33.6618,21.8417 33.3284,22.5084 33.5,23.5C 32.6618,23.8417 32.3284,24.5084 32.5,25.5C 31.8333,25.5 31.5,25.8333 31.5,26.5C 30.6618,26.8417 30.3284,27.5084 30.5,28.5C 29.6618,28.8417 29.3284,29.5084 29.5,30.5C 28.8333,30.5 28.5,30.8333 28.5,31.5C 28.1667,31.5 27.8333,31.5 27.5,31.5C 27.5,30.8333 27.5,30.1667 27.5,29.5C 28.3382,29.1583 28.6716,28.4916 28.5,27.5C 29.3382,27.1583 29.6716,26.4916 29.5,25.5C 30.1667,25.5 30.5,25.1667 30.5,24.5C 31.3382,24.1583 31.6716,23.4916 31.5,22.5C 32.2679,21.7375 32.7679,20.7375 33,19.5C 33.7172,20.0442 34.2172,20.7109 34.5,21.5 Z"/></g>
<g><path style="opacity:0.016" fill="#64fb9b" d="M 26.5,31.5 C 26.8333,31.5 27.1667,31.5 27.5,31.5C 27.5,32.1667 27.5,32.8333 27.5,33.5C 26.6618,33.8417 26.3284,34.5084 26.5,35.5C 25.6618,35.8417 25.3284,36.5084 25.5,37.5C 24.8333,37.5 24.5,37.8333 24.5,38.5C 23.6618,38.8417 23.3284,39.5084 23.5,40.5C 22.6618,40.8417 22.3284,41.5084 22.5,42.5C 21.193,44.2232 21.193,46.0565 22.5,48C 21.9056,48.4643 21.2389,48.631 20.5,48.5C 20.6716,47.5084 20.3382,46.8417 19.5,46.5C 19.5,45.5 19.5,44.5 19.5,43.5C 20.3382,43.1583 20.6716,42.4916 20.5,41.5C 21.3382,41.1583 21.6716,40.4916 21.5,39.5C 22.3382,39.1583 22.6716,38.4916 22.5,37.5C 23.1667,37.5 23.5,37.1667 23.5,36.5C 24.3382,36.1583 24.6716,35.4916 24.5,34.5C 25.3382,34.1583 25.6716,33.4916 25.5,32.5C 26.1667,32.5 26.5,32.1667 26.5,31.5 Z"/></g>
<g><path style="opacity:0.012" fill="#129b64" d="M 59.5,41.5 C 59.5,42.1667 59.5,42.8333 59.5,43.5C 59.1667,43.5 58.8333,43.5 58.5,43.5C 58.3284,42.5084 58.6618,41.8417 59.5,41.5 Z"/></g>
<g><path style="opacity:0.012" fill="#a9f3db" d="M -0.5,41.5 C 0.833333,43.1667 0.833333,44.8333 -0.5,46.5C -0.5,44.8333 -0.5,43.1667 -0.5,41.5 Z"/></g>
<g><path style="opacity:0.008" fill="#00807f" d="M 58.5,45.5 C 58.8333,45.5 59.1667,45.5 59.5,45.5C 59.5,46.1667 59.5,46.8333 59.5,47.5C 59.1667,47.5 58.8333,47.5 58.5,47.5C 58.5,46.8333 58.5,46.1667 58.5,45.5 Z"/></g>
<g><path style="opacity:0.008" fill="#00807f" d="M 57.5,47.5 C 57.8333,47.5 58.1667,47.5 58.5,47.5C 58.3147,48.1701 57.9813,48.1701 57.5,47.5 Z"/></g>
<g><path style="opacity:0.004" fill="#fefffe" d="M 19.5,48.5 C 19.8333,48.5 20.1667,48.5 20.5,48.5C 20.3147,49.1701 19.9813,49.1701 19.5,48.5 Z"/></g>
<g><path style="opacity:0.008" fill="#00ff7f" d="M 56.5,48.5 C 56.8333,48.5 57.1667,48.5 57.5,48.5C 57.3147,49.1701 56.9813,49.1701 56.5,48.5 Z"/></g>
<g><path style="opacity:0.016" fill="#83f7bc" d="M 19.5,49.5 C 14.3497,50.6507 9.01642,50.8174 3.5,50C 8.82294,49.5006 14.1563,49.334 19.5,49.5 Z"/></g>
<g><path style="opacity:0.016" fill="#43c27f" d="M 56.5,49.5 C 46.008,50.6588 35.3414,50.8255 24.5,50C 35.1615,49.5002 45.8281,49.3335 56.5,49.5 Z"/></g>
</svg>
