<?xml version="1.0" encoding="UTF-8"?>
<!DOCTYPE svg PUBLIC "-//W3C//DTD SVG 1.1//EN" "http://www.w3.org/Graphics/SVG/1.1/DTD/svg11.dtd">
<svg xmlns="http://www.w3.org/2000/svg" version="1.1" width="1024px" height="488px" style="shape-rendering:geometricPrecision; text-rendering:geometricPrecision; image-rendering:optimizeQuality; fill-rule:evenodd; clip-rule:evenodd" xmlns:xlink="http://www.w3.org/1999/xlink">
    <g><path style="opacity:0.967" fill="#625aff" d="M 540.5,78.5 C 541.833,78.5 543.167,78.5 544.5,78.5C 544.667,93.5037 544.5,108.504 544,123.5C 525.619,127.943 507.119,131.943 488.5,135.5C 488.5,120.167 488.5,104.833 488.5,89.5C 506.109,86.5795 523.442,82.9129 540.5,78.5 Z"/></g>
    <g><path style="opacity:0.986" fill="#625aff" d="M 319.5,103.5 C 321.485,119.132 322.151,135.132 321.5,151.5C 335.167,151.5 348.833,151.5 362.5,151.5C 362.5,167.167 362.5,182.833 362.5,198.5C 348.833,198.5 335.167,198.5 321.5,198.5C 321.024,227.897 321.524,257.23 323,286.5C 325.659,292.492 330.159,296.325 336.5,298C 345.348,298.916 354.015,298.083 362.5,295.5C 362.667,310.504 362.5,325.504 362,340.5C 350.726,345.455 338.893,347.788 326.5,347.5C 291.883,347.048 272.05,329.715 267,295.5C 266.299,235.163 266.466,174.83 267.5,114.5C 285.077,111.435 302.411,107.768 319.5,103.5 Z"/></g>
    <g><path style="opacity:0.986" fill="#625aff" d="M 180.5,147.5 C 202.92,146.182 224.587,149.515 245.5,157.5C 246.5,174.821 246.833,192.154 246.5,209.5C 229.186,201.63 211.02,196.963 192,195.5C 186.987,195.979 182.154,197.146 177.5,199C 172.956,203.394 172.456,208.227 176,213.5C 178.234,215.7 180.734,217.533 183.5,219C 194.423,223.197 205.423,227.197 216.5,231C 252.196,245.565 264.363,271.398 253,308.5C 243.306,328.513 227.473,340.679 205.5,345C 176.224,350.21 147.89,347.043 120.5,335.5C 119.5,317.846 119.167,300.179 119.5,282.5C 129.855,287.343 140.522,291.51 151.5,295C 163.261,298.585 175.261,299.919 187.5,299C 197.003,297.526 201.003,292.193 199.5,283C 197.888,280.384 195.888,278.05 193.5,276C 180.842,269.838 167.842,264.504 154.5,260C 120.394,245.051 109.561,219.884 122,184.5C 128.951,170.216 139.784,160.05 154.5,154C 163.066,150.86 171.733,148.693 180.5,147.5 Z"/></g>
    <g><path style="opacity:0.993" fill="#635aff" d="M 565.5,406.5 C 564.501,321.668 564.167,236.668 564.5,151.5C 580.833,151.5 597.167,151.5 613.5,151.5C 613.884,155.586 614.717,159.586 616,163.5C 640.008,144.713 665.508,142.547 692.5,157C 712.862,170.853 725.362,190.019 730,214.5C 737.508,249.442 733.174,282.775 717,314.5C 697.38,342.708 670.88,352.542 637.5,344C 631.181,341.67 625.348,338.504 620,334.5C 619.833,354.842 619.333,375.175 618.5,395.5C 600.927,399.643 583.26,403.31 565.5,406.5 Z M 636.5,197.5 C 655.168,195.756 667.668,203.756 674,221.5C 680.94,242.397 679.607,262.73 670,282.5C 655.507,301.478 638.84,303.478 620,288.5C 619.333,261.5 619.333,234.5 620,207.5C 624.726,202.728 630.226,199.394 636.5,197.5 Z"/></g>
    <g><path style="opacity:0.991" fill="#635aff" d="M 816.5,147.5 C 854.139,144.692 880.639,160.358 896,194.5C 904.738,218.401 907.904,243.068 905.5,268.5C 869.833,268.5 834.167,268.5 798.5,268.5C 800.683,285.185 810.017,295.352 826.5,299C 849.886,302.214 872.219,298.714 893.5,288.5C 894.833,303.5 894.833,318.5 893.5,333.5C 866.807,346.604 838.807,350.437 809.5,345C 774.078,335.909 752.578,313.409 745,277.5C 737.79,242.471 743.456,209.804 762,179.5C 775.749,161.212 793.916,150.545 816.5,147.5 Z M 823.5,192.5 C 837.435,192.709 846.601,199.376 851,212.5C 852.158,217.118 852.992,221.784 853.5,226.5C 834.833,226.5 816.167,226.5 797.5,226.5C 797.677,208.358 806.344,197.025 823.5,192.5 Z"/></g>
    <g><path style="opacity:0.99" fill="#625bff" d="M 460.5,148.5 C 465.797,148.973 470.963,149.973 476,151.5C 476.5,168.497 476.667,185.497 476.5,202.5C 460.367,197.756 446.534,201.423 435,213.5C 434.5,256.832 434.333,300.165 434.5,343.5C 416.167,343.5 397.833,343.5 379.5,343.5C 379.5,279.5 379.5,215.5 379.5,151.5C 395.5,151.5 411.5,151.5 427.5,151.5C 428.095,156.31 429.262,160.976 431,165.5C 438.159,155.009 447.992,149.343 460.5,148.5 Z"/></g>
    <g><path style="opacity:0.051" fill="#6262ff" d="M 564.5,151.5 C 564.167,236.668 564.501,321.668 565.5,406.5C 565.44,407.043 565.107,407.376 564.5,407.5C 563.168,322.001 563.168,236.668 564.5,151.5 Z"/></g>
    <g><path style="opacity:0.981" fill="#625bff" d="M 488.5,151.5 C 507.167,151.5 525.833,151.5 544.5,151.5C 544.5,215.5 544.5,279.5 544.5,343.5C 525.833,343.5 507.167,343.5 488.5,343.5C 488.5,279.5 488.5,215.5 488.5,151.5 Z"/></g>
</svg>
